<svg width="256" height="256" viewBox="0 0 256 256" fill="none" xmlns="http://www.w3.org/2000/svg">
<circle cx="128" cy="128" r="128" fill="url(#paint0_linear_4_12)"/>
<path fill-rule="evenodd" clip-rule="evenodd" d="M142.336 51C136.178 40.3333 120.782 40.3333 114.623 51L54.4521 155.219C48.2937 165.886 55.9917 179.219 68.3085 179.219H188.651C200.968 179.219 208.666 165.886 202.507 155.219L155.884 74.4649V137.423C155.884 142.78 154.079 147.515 150.469 151.626C147.049 155.612 142.489 158.789 136.789 161.156C131.279 163.399 125.199 164.52 118.549 164.52H118.549C112.659 164.52 108.442 164.52 104.869 162.177C101.829 160.184 100.594 157.17 100.594 154.055C100.594 150.691 102.019 147.577 104.869 144.711C107.909 141.721 111.804 139.354 116.554 137.61C121.304 135.866 126.244 134.994 131.374 134.994C133.654 134.994 135.934 135.181 138.214 135.555C140.684 135.804 143.059 136.24 145.339 136.863V56.2004L142.336 51Z" fill="white"/>
<defs>
<linearGradient id="paint0_linear_4_12" x1="256" y1="-7.62939e-06" x2="128" y2="256" gradientUnits="userSpaceOnUse">
<stop stop-color="#FEE140"/>
<stop offset="1" stop-color="#FA709A"/>
</linearGradient>
</defs>
</svg>
