<svg width="256" height="256" viewBox="0 0 256 256" fill="none" xmlns="http://www.w3.org/2000/svg">
<circle cx="128" cy="128" r="128" fill="#FF6D26"/>
<path fill-rule="evenodd" clip-rule="evenodd" d="M118.548 164.52H118.549C125.199 164.52 131.279 163.399 136.789 161.156C142.489 158.789 147.049 155.612 150.469 151.626C154.079 147.515 155.883 142.78 155.883 137.423V79.9579L202.223 160.219C208.381 170.886 200.683 184.219 188.366 184.219H68.0238C55.707 184.219 48.0091 170.886 54.1675 160.219L114.339 56C120.497 45.3333 135.893 45.3333 142.051 56L145.339 61.6935V136.863C143.059 136.24 140.684 135.804 138.214 135.555C135.934 135.181 133.654 134.994 131.374 134.994C126.244 134.994 121.304 135.866 116.554 137.61C111.804 139.354 107.909 141.721 104.869 144.711C102.019 147.577 100.594 150.691 100.594 154.055C100.594 157.17 101.829 160.184 104.869 162.177C108.442 164.52 112.659 164.52 118.548 164.52Z" fill="white"/>
</svg>
